<svg id="svg" version="1.1" xmlns="http://www.w3.org/2000/svg" xmlns:xlink="http://www.w3.org/1999/xlink" width="400" height="567.5057208237986" viewBox="0, 0, 400,567.5057208237986"><g id="svgg"><path id="path0" d="M125.929 189.119 C 125.879 189.249,125.866 198.820,125.900 210.387 L 125.961 231.419 129.805 231.400 C 131.919 231.389,133.757 231.372,133.888 231.362 C 134.048 231.349,134.125 225.664,134.119 214.370 L 134.109 197.398 220.691 197.339 L 307.273 197.279 307.332 283.796 L 307.392 370.313 220.751 370.263 L 134.110 370.213 134.119 353.318 C 134.127 338.067,134.091 336.408,133.751 336.277 C 133.543 336.198,131.679 336.132,129.608 336.132 L 125.843 336.132 125.843 357.422 L 125.843 378.711 220.816 378.711 L 315.790 378.711 315.731 283.853 L 315.671 188.996 220.845 188.939 C 157.793 188.901,125.989 188.962,125.929 189.119 M78.105 236.848 C 77.850 237.155,77.710 237.670,77.352 239.622 C 77.245 240.207,76.944 241.271,76.683 241.987 C 76.422 242.703,75.976 244.086,75.691 245.062 C 75.406 246.038,75.086 247.102,74.980 247.428 C 74.873 247.753,74.453 249.137,74.045 250.503 C 73.637 251.869,72.993 253.944,72.614 255.115 C 72.235 256.286,71.874 257.510,71.813 257.836 C 71.677 258.554,70.791 261.600,70.574 262.093 C 70.488 262.289,70.378 262.714,70.329 263.040 C 70.280 263.365,70.086 264.110,69.898 264.695 C 69.709 265.281,69.327 266.558,69.048 267.534 C 68.769 268.510,68.349 269.894,68.115 270.609 C 67.881 271.325,67.034 274.092,66.232 276.759 C 65.431 279.426,64.525 282.408,64.218 283.385 C 63.912 284.362,63.605 285.426,63.537 285.750 C 63.225 287.240,62.663 289.363,62.245 290.629 C 61.993 291.392,61.506 292.975,61.162 294.145 C 60.818 295.316,60.059 297.818,59.474 299.704 C 58.890 301.591,58.296 303.560,58.154 304.080 C 58.012 304.601,57.780 305.399,57.639 305.855 C 57.498 306.310,57.371 306.736,57.358 306.801 C 57.344 306.866,57.089 307.710,56.793 308.676 C 56.496 309.642,56.217 310.707,56.174 311.042 C 56.130 311.376,55.829 312.501,55.503 313.542 C 52.614 322.790,51.094 327.874,51.094 328.294 C 51.094 328.648,52.190 328.681,63.717 328.681 L 76.341 328.681 76.613 328.067 C 76.763 327.729,76.937 326.941,77.000 326.316 C 77.064 325.690,77.218 324.796,77.344 324.328 C 77.470 323.860,77.785 322.466,78.044 321.230 C 78.303 319.994,78.736 318.025,79.006 316.854 C 79.398 315.154,80.426 310.218,80.426 310.036 C 80.426 309.892,104.912 310.141,105.055 310.287 C 105.152 310.386,105.289 310.893,105.358 311.413 C 105.549 312.847,105.734 313.951,105.894 314.607 C 105.973 314.932,106.069 315.411,106.106 315.671 C 106.165 316.089,106.508 317.667,107.777 323.359 C 107.965 324.205,108.287 325.695,108.491 326.671 C 108.696 327.646,108.895 328.479,108.934 328.521 C 109.061 328.660,134.602 328.634,134.741 328.496 C 134.815 328.422,134.546 327.348,134.144 326.110 C 133.741 324.872,133.413 323.667,133.413 323.432 C 133.414 323.197,133.137 322.099,132.797 320.993 C 131.823 317.819,130.929 314.892,130.270 312.714 C 129.935 311.609,129.236 309.320,128.716 307.629 C 126.912 301.754,126.348 299.818,126.188 298.936 C 126.099 298.448,125.926 298.048,125.802 298.048 C 125.679 298.048,125.643 297.944,125.721 297.817 C 125.862 297.589,125.397 295.677,125.145 295.446 C 125.073 295.381,124.996 295.169,124.973 294.973 C 124.906 294.407,124.742 293.822,123.947 291.307 C 123.536 290.006,122.936 288.037,122.614 286.931 C 122.037 284.949,120.269 279.183,119.531 276.878 C 119.323 276.227,119.122 275.429,119.083 275.103 C 118.998 274.372,118.827 273.759,117.467 269.308 C 116.870 267.357,116.382 265.580,116.382 265.360 C 116.381 265.140,116.274 264.894,116.144 264.814 C 116.014 264.733,115.908 264.459,115.908 264.205 C 115.908 263.951,115.814 263.558,115.700 263.332 C 115.586 263.106,115.381 262.549,115.246 262.093 C 114.580 259.866,113.441 256.113,112.948 254.524 C 112.645 253.548,112.322 252.324,112.229 251.804 C 112.136 251.283,111.949 250.645,111.813 250.384 C 111.677 250.124,111.541 249.698,111.512 249.438 C 111.448 248.882,111.210 248.032,110.356 245.299 C 110.010 244.193,109.684 243.086,109.631 242.840 C 109.578 242.593,109.272 241.582,108.951 240.592 C 108.630 239.603,108.227 238.315,108.057 237.729 L 107.747 236.665 93.052 236.604 C 81.292 236.555,78.307 236.604,78.105 236.848 M92.811 254.700 C 93.004 256.108,95.235 266.289,96.038 269.426 C 96.271 270.334,97.126 274.162,97.306 275.103 C 97.369 275.429,97.580 276.334,97.775 277.114 C 97.970 277.895,98.182 278.906,98.245 279.361 C 98.308 279.817,98.378 280.189,98.401 280.189 C 98.423 280.189,98.474 280.455,98.513 280.781 C 98.686 282.219,98.945 283.529,99.122 283.866 C 99.227 284.066,99.531 285.344,99.796 286.704 C 100.062 288.065,100.444 289.799,100.644 290.557 C 101.154 292.482,101.654 292.371,92.448 292.371 L 84.155 292.371 84.318 291.839 C 84.408 291.546,84.747 290.083,85.072 288.587 C 85.397 287.090,85.808 285.281,85.987 284.565 C 86.165 283.850,86.419 282.785,86.551 282.200 C 86.684 281.614,87.019 280.124,87.297 278.888 C 87.575 277.652,87.898 276.268,88.014 275.813 C 88.130 275.358,88.274 274.666,88.335 274.276 C 88.395 273.885,88.497 273.353,88.561 273.093 C 88.905 271.693,89.635 268.520,89.730 268.007 C 89.790 267.682,90.071 266.404,90.353 265.169 C 90.636 263.933,90.910 262.602,90.962 262.212 C 91.245 260.108,91.346 259.526,91.581 258.664 C 92.017 257.061,92.490 254.672,92.490 254.071 C 92.490 253.229,92.654 253.551,92.811 254.700 M164.281 255.987 C 163.631 256.076,162.833 256.208,162.507 256.282 C 162.182 256.355,161.543 256.490,161.088 256.582 C 160.633 256.674,160.207 256.763,160.142 256.780 C 159.059 257.054,158.552 257.232,158.309 257.424 C 158.146 257.552,158.013 257.592,158.013 257.512 C 158.013 257.301,154.906 258.503,154.475 258.880 C 154.274 259.056,153.631 259.439,153.046 259.732 C 151.727 260.392,148.533 262.714,147.202 263.980 C 144.919 266.153,140.620 271.548,141.163 271.559 C 141.258 271.561,141.217 271.641,141.071 271.736 C 140.805 271.911,139.938 273.862,139.050 276.286 C 138.787 277.002,138.479 277.701,138.365 277.839 C 138.156 278.094,136.931 282.691,136.605 284.447 C 135.694 289.356,135.639 298.465,136.498 302.100 C 136.786 303.315,136.811 303.437,137.055 304.790 C 137.399 306.692,138.670 310.518,139.610 312.478 C 140.140 313.584,140.846 315.054,141.179 315.744 C 141.795 317.021,144.253 320.180,145.424 321.199 C 145.778 321.508,146.653 322.315,147.368 322.993 C 148.589 324.151,151.525 326.341,151.926 326.394 C 152.026 326.407,152.877 326.805,153.818 327.277 C 159.583 330.171,170.911 331.926,177.410 330.931 C 180.349 330.481,183.044 329.958,184.270 329.601 C 187.328 328.708,188.677 328.253,189.160 327.951 C 189.443 327.774,190.605 327.244,191.741 326.774 C 192.878 326.303,193.958 325.768,194.142 325.585 C 194.325 325.401,194.603 325.251,194.760 325.251 C 195.067 325.251,197.967 323.276,199.593 321.959 C 200.615 321.132,200.868 320.440,200.237 320.198 C 200.041 320.123,199.882 319.899,199.882 319.700 C 199.882 319.501,199.801 319.338,199.703 319.338 C 199.524 319.338,197.309 316.324,195.706 313.897 C 195.233 313.182,194.675 312.425,194.466 312.216 C 194.257 312.007,193.501 311.023,192.785 310.030 C 191.573 308.346,190.668 307.734,190.380 308.404 C 190.121 309.009,183.751 312.478,182.899 312.478 C 182.742 312.478,182.614 312.591,182.614 312.728 C 182.614 312.866,182.519 312.920,182.403 312.848 C 182.286 312.776,181.355 312.996,180.333 313.337 C 177.602 314.247,171.787 314.301,169.131 313.441 C 168.155 313.126,167.277 312.886,167.179 312.909 C 167.082 312.932,167.002 312.827,167.002 312.675 C 167.002 312.523,166.938 312.463,166.860 312.540 C 166.059 313.342,161.419 308.234,161.218 306.328 C 161.197 306.132,161.035 305.494,160.858 304.908 C 160.406 303.417,160.372 303.266,160.217 302.070 C 160.142 301.484,159.972 300.870,159.841 300.704 C 159.378 300.121,160.077 300.103,181.411 300.122 C 197.676 300.137,202.944 300.074,203.019 299.864 C 203.207 299.341,203.312 296.510,203.275 292.963 C 203.256 291.011,203.234 288.542,203.228 287.475 C 203.196 281.870,200.167 272.601,197.122 268.795 C 196.688 268.253,196.333 267.721,196.333 267.612 C 196.333 266.478,191.414 262.227,187.303 259.807 C 185.373 258.671,181.583 257.167,179.657 256.773 C 178.746 256.587,177.682 256.360,177.292 256.269 C 176.901 256.178,175.810 256.095,174.867 256.083 C 173.924 256.071,173.152 256.008,173.152 255.943 C 173.152 255.765,165.636 255.801,164.281 255.987 M250.112 256.296 C 249.702 256.483,249.098 256.684,248.770 256.743 C 245.937 257.257,238.675 263.133,238.675 264.911 C 238.675 265.070,238.400 265.561,238.064 266.002 C 237.728 266.443,237.197 267.538,236.885 268.435 C 236.573 269.333,236.157 270.376,235.960 270.752 L 235.603 271.437 235.599 270.727 C 235.596 270.337,235.382 268.847,235.123 267.416 C 234.865 265.985,234.542 264.069,234.407 263.158 C 234.126 261.272,233.730 259.098,233.556 258.484 C 233.445 258.093,232.803 258.071,223.224 258.129 L 213.010 258.190 213.010 293.415 L 213.010 328.640 224.719 328.633 L 236.428 328.626 236.554 311.622 C 236.687 293.601,236.697 293.436,237.845 290.716 C 238.037 290.260,238.243 289.590,238.303 289.227 C 238.916 285.489,242.982 280.731,246.678 279.426 C 247.989 278.963,252.746 278.886,254.051 279.306 C 256.001 279.935,256.964 279.805,257.145 278.888 C 257.451 277.341,258.147 273.401,258.565 270.846 C 258.703 270.000,258.846 269.148,258.882 268.953 C 259.068 267.933,259.312 266.297,259.398 265.490 C 259.523 264.308,260.096 260.671,260.570 258.052 C 260.737 257.130,260.773 257.160,258.545 256.418 C 257.217 255.976,251.013 255.886,250.112 256.296 M174.216 271.747 C 176.460 272.987,177.100 273.656,178.206 275.911 C 179.405 278.357,179.876 280.345,180.132 284.033 L 180.299 286.458 169.955 286.458 L 159.610 286.458 159.761 285.701 C 159.844 285.285,159.973 284.354,160.048 283.632 C 160.123 282.909,160.331 281.839,160.511 281.254 C 160.691 280.668,160.886 279.763,160.946 279.243 C 161.006 278.723,161.070 278.297,161.089 278.297 C 161.108 278.297,161.171 278.036,161.230 277.718 C 161.576 275.833,164.135 272.695,165.980 271.892 C 168.263 270.899,172.546 270.824,174.216 271.747 " stroke="none" fill="#ac6c3c" fill-rule="evenodd"></path><path id="path1" d="M131.579 188.941 C 134.409 188.979,139.039 188.979,141.869 188.941 C 144.698 188.903,142.383 188.873,136.724 188.873 C 131.064 188.873,128.749 188.903,131.579 188.941 M159.273 188.941 C 165.885 188.976,176.636 188.976,183.164 188.941 C 189.692 188.906,184.281 188.878,171.141 188.878 C 158.001 188.878,152.660 188.906,159.273 188.941 M207.156 188.941 C 213.693 188.976,224.391 188.976,230.928 188.941 C 237.466 188.906,232.117 188.878,219.042 188.878 C 205.967 188.878,200.618 188.906,207.156 188.941 M244.530 188.937 C 245.083 188.987,245.988 188.987,246.541 188.937 C 247.093 188.887,246.641 188.847,245.535 188.847 C 244.429 188.847,243.977 188.887,244.530 188.937 M264.263 188.941 C 273.457 188.976,288.573 188.976,297.853 188.941 C 307.132 188.907,299.610 188.879,281.135 188.879 C 262.661 188.879,255.069 188.907,264.263 188.941 M167.534 255.881 C 168.282 255.928,169.506 255.928,170.254 255.881 C 171.002 255.835,170.390 255.796,168.894 255.796 C 167.398 255.796,166.786 255.835,167.534 255.881 M171.440 300.108 C 171.734 300.165,172.160 300.163,172.386 300.103 C 172.612 300.044,172.371 299.998,171.851 300.001 C 171.331 300.003,171.146 300.052,171.440 300.108 M60.481 328.740 C 62.977 328.778,67.128 328.778,69.706 328.740 C 72.284 328.702,70.242 328.671,65.169 328.671 C 60.095 328.670,57.985 328.702,60.481 328.740 M116.188 328.740 C 118.748 328.778,123.006 328.778,125.650 328.740 C 128.293 328.702,126.198 328.671,120.993 328.671 C 115.789 328.671,113.627 328.702,116.188 328.740 M220.623 328.740 C 222.859 328.779,226.585 328.779,228.903 328.740 C 231.220 328.701,229.391 328.670,224.837 328.669 C 220.284 328.669,218.388 328.701,220.623 328.740 M141.750 370.358 C 141.978 370.418,142.351 370.418,142.578 370.358 C 142.806 370.299,142.620 370.250,142.164 370.250 C 141.709 370.250,141.523 370.299,141.750 370.358 " stroke="none" fill="#b06c3c" fill-rule="evenodd"></path><path id="path2" d="M131.579 188.941 C 134.409 188.979,139.039 188.979,141.869 188.941 C 144.698 188.903,142.383 188.873,136.724 188.873 C 131.064 188.873,128.749 188.903,131.579 188.941 M159.273 188.941 C 165.885 188.976,176.636 188.976,183.164 188.941 C 189.692 188.906,184.281 188.878,171.141 188.878 C 158.001 188.878,152.660 188.906,159.273 188.941 M207.156 188.941 C 213.693 188.976,224.391 188.976,230.928 188.941 C 237.466 188.906,232.117 188.878,219.042 188.878 C 205.967 188.878,200.618 188.906,207.156 188.941 M244.530 188.937 C 245.083 188.987,245.988 188.987,246.541 188.937 C 247.093 188.887,246.641 188.847,245.535 188.847 C 244.429 188.847,243.977 188.887,244.530 188.937 M264.263 188.941 C 273.457 188.976,288.573 188.976,297.853 188.941 C 307.132 188.907,299.610 188.879,281.135 188.879 C 262.661 188.879,255.069 188.907,264.263 188.941 M167.534 255.881 C 168.282 255.928,169.506 255.928,170.254 255.881 C 171.002 255.835,170.390 255.796,168.894 255.796 C 167.398 255.796,166.786 255.835,167.534 255.881 M171.440 300.108 C 171.734 300.165,172.160 300.163,172.386 300.103 C 172.612 300.044,172.371 299.998,171.851 300.001 C 171.331 300.003,171.146 300.052,171.440 300.108 M60.481 328.740 C 62.977 328.778,67.128 328.778,69.706 328.740 C 72.284 328.702,70.242 328.671,65.169 328.671 C 60.095 328.670,57.985 328.702,60.481 328.740 M116.188 328.740 C 118.748 328.778,123.006 328.778,125.650 328.740 C 128.293 328.702,126.198 328.671,120.993 328.671 C 115.789 328.671,113.627 328.702,116.188 328.740 M220.623 328.740 C 222.859 328.779,226.585 328.779,228.903 328.740 C 231.220 328.701,229.391 328.670,224.837 328.669 C 220.284 328.669,218.388 328.701,220.623 328.740 M141.750 370.358 C 141.978 370.418,142.351 370.418,142.578 370.358 C 142.806 370.299,142.620 370.250,142.164 370.250 C 141.709 370.250,141.523 370.299,141.750 370.358 " stroke="none" fill="#b06c3c" fill-rule="evenodd"></path><path id="path3" d="M131.579 188.941 C 134.409 188.979,139.039 188.979,141.869 188.941 C 144.698 188.903,142.383 188.873,136.724 188.873 C 131.064 188.873,128.749 188.903,131.579 188.941 M159.273 188.941 C 165.885 188.976,176.636 188.976,183.164 188.941 C 189.692 188.906,184.281 188.878,171.141 188.878 C 158.001 188.878,152.660 188.906,159.273 188.941 M207.156 188.941 C 213.693 188.976,224.391 188.976,230.928 188.941 C 237.466 188.906,232.117 188.878,219.042 188.878 C 205.967 188.878,200.618 188.906,207.156 188.941 M244.530 188.937 C 245.083 188.987,245.988 188.987,246.541 188.937 C 247.093 188.887,246.641 188.847,245.535 188.847 C 244.429 188.847,243.977 188.887,244.530 188.937 M264.263 188.941 C 273.457 188.976,288.573 188.976,297.853 188.941 C 307.132 188.907,299.610 188.879,281.135 188.879 C 262.661 188.879,255.069 188.907,264.263 188.941 M167.534 255.881 C 168.282 255.928,169.506 255.928,170.254 255.881 C 171.002 255.835,170.390 255.796,168.894 255.796 C 167.398 255.796,166.786 255.835,167.534 255.881 M171.440 300.108 C 171.734 300.165,172.160 300.163,172.386 300.103 C 172.612 300.044,172.371 299.998,171.851 300.001 C 171.331 300.003,171.146 300.052,171.440 300.108 M60.481 328.740 C 62.977 328.778,67.128 328.778,69.706 328.740 C 72.284 328.702,70.242 328.671,65.169 328.671 C 60.095 328.670,57.985 328.702,60.481 328.740 M116.188 328.740 C 118.748 328.778,123.006 328.778,125.650 328.740 C 128.293 328.702,126.198 328.671,120.993 328.671 C 115.789 328.671,113.627 328.702,116.188 328.740 M220.623 328.740 C 222.859 328.779,226.585 328.779,228.903 328.740 C 231.220 328.701,229.391 328.670,224.837 328.669 C 220.284 328.669,218.388 328.701,220.623 328.740 M141.750 370.358 C 141.978 370.418,142.351 370.418,142.578 370.358 C 142.806 370.299,142.620 370.250,142.164 370.250 C 141.709 370.250,141.523 370.299,141.750 370.358 " stroke="none" fill="#b06c3c" fill-rule="evenodd"></path><path id="path4" d="M131.579 188.941 C 134.409 188.979,139.039 188.979,141.869 188.941 C 144.698 188.903,142.383 188.873,136.724 188.873 C 131.064 188.873,128.749 188.903,131.579 188.941 M159.273 188.941 C 165.885 188.976,176.636 188.976,183.164 188.941 C 189.692 188.906,184.281 188.878,171.141 188.878 C 158.001 188.878,152.660 188.906,159.273 188.941 M207.156 188.941 C 213.693 188.976,224.391 188.976,230.928 188.941 C 237.466 188.906,232.117 188.878,219.042 188.878 C 205.967 188.878,200.618 188.906,207.156 188.941 M244.530 188.937 C 245.083 188.987,245.988 188.987,246.541 188.937 C 247.093 188.887,246.641 188.847,245.535 188.847 C 244.429 188.847,243.977 188.887,244.530 188.937 M264.263 188.941 C 273.457 188.976,288.573 188.976,297.853 188.941 C 307.132 188.907,299.610 188.879,281.135 188.879 C 262.661 188.879,255.069 188.907,264.263 188.941 M167.534 255.881 C 168.282 255.928,169.506 255.928,170.254 255.881 C 171.002 255.835,170.390 255.796,168.894 255.796 C 167.398 255.796,166.786 255.835,167.534 255.881 M171.440 300.108 C 171.734 300.165,172.160 300.163,172.386 300.103 C 172.612 300.044,172.371 299.998,171.851 300.001 C 171.331 300.003,171.146 300.052,171.440 300.108 M60.481 328.740 C 62.977 328.778,67.128 328.778,69.706 328.740 C 72.284 328.702,70.242 328.671,65.169 328.671 C 60.095 328.670,57.985 328.702,60.481 328.740 M116.188 328.740 C 118.748 328.778,123.006 328.778,125.650 328.740 C 128.293 328.702,126.198 328.671,120.993 328.671 C 115.789 328.671,113.627 328.702,116.188 328.740 M220.623 328.740 C 222.859 328.779,226.585 328.779,228.903 328.740 C 231.220 328.701,229.391 328.670,224.837 328.669 C 220.284 328.669,218.388 328.701,220.623 328.740 M141.750 370.358 C 141.978 370.418,142.351 370.418,142.578 370.358 C 142.806 370.299,142.620 370.250,142.164 370.250 C 141.709 370.250,141.523 370.299,141.750 370.358 " stroke="none" fill="#b06c3c" fill-rule="evenodd"></path></g></svg>