<svg id="svg" version="1.1" xmlns="http://www.w3.org/2000/svg" xmlns:xlink="http://www.w3.org/1999/xlink" width="400" height="400" viewBox="0, 0, 400,400"><g id="svgg"><path id="path0" d="M165.067 200.000 L 165.067 246.465 189.971 246.397 C 212.523 246.335,215.093 246.296,217.179 245.990 C 234.858 243.396,243.017 235.180,242.549 220.442 C 242.185 208.950,236.356 201.981,224.376 198.715 L 223.704 198.532 225.624 197.557 C 233.996 193.301,238.330 185.548,237.726 175.912 C 236.964 163.762,229.144 156.522,214.141 154.076 C 211.671 153.674,211.072 153.663,188.340 153.600 L 165.067 153.535 165.067 200.000 M211.804 167.811 C 224.218 171.377,224.795 188.192,212.649 192.431 L 211.036 192.994 196.017 193.050 L 180.998 193.106 180.998 180.366 C 180.998 173.359,181.060 167.565,181.135 167.490 C 181.466 167.159,210.595 167.464,211.804 167.811 M214.051 205.377 C 221.283 206.206,225.622 211.461,225.615 219.386 C 225.609 225.604,223.335 229.676,218.547 232.038 C 215.708 233.440,216.447 233.391,197.745 233.394 L 180.998 233.397 180.998 219.418 C 180.998 211.729,181.056 205.381,181.126 205.310 C 181.335 205.102,212.195 205.164,214.051 205.377 " stroke="none" fill="#fbfbfb" fill-rule="evenodd"></path><path id="path1" d="M127.159 80.173 C 101.908 82.562,81.975 103.130,80.042 128.791 C 79.773 132.371,79.774 267.652,80.044 271.209 C 81.912 295.861,99.490 315.096,124.112 319.431 L 126.583 319.866 200.000 319.866 L 273.417 319.866 275.888 319.431 C 300.506 315.096,318.103 295.842,319.958 271.209 C 320.226 267.645,320.226 132.355,319.958 128.791 C 318.105 104.188,300.683 85.082,275.989 80.572 L 273.608 80.138 200.768 80.119 C 160.705 80.109,127.582 80.133,127.159 80.173 M213.244 153.810 C 230.350 156.371,238.838 165.291,237.792 179.606 C 237.200 187.718,232.171 195.033,225.201 197.922 C 223.900 198.461,223.917 198.513,225.520 198.929 C 236.866 201.872,243.192 210.639,242.751 222.808 C 242.285 235.688,233.832 243.637,218.138 245.952 C 213.923 246.574,210.972 246.641,187.965 246.641 L 164.875 246.641 164.875 199.991 L 164.875 153.342 187.956 153.411 C 208.581 153.473,211.271 153.515,213.244 153.810 M181.190 180.230 L 181.190 192.898 195.747 192.898 C 209.606 192.898,210.374 192.880,211.783 192.520 C 223.096 189.626,224.787 174.058,214.344 168.936 C 211.536 167.558,211.590 167.562,195.498 167.562 L 181.190 167.562 181.190 180.230 M181.190 219.389 L 181.190 233.418 198.033 233.347 C 216.804 233.268,215.648 233.349,218.618 231.902 C 226.982 227.825,228.178 213.788,220.645 208.124 C 216.999 205.384,217.953 205.498,198.129 205.424 L 181.190 205.360 181.190 219.389 " stroke="none" fill="#543c7c" fill-rule="evenodd"></path><path id="path2" d="M206.768 153.497 C 207.060 153.541,207.492 153.540,207.728 153.494 C 207.964 153.448,207.726 153.412,207.198 153.414 C 206.670 153.415,206.477 153.453,206.768 153.497 M188.134 193.042 C 192.005 193.071,198.397 193.071,202.337 193.042 C 206.277 193.013,203.109 192.989,195.298 192.989 C 187.486 192.989,184.262 193.013,188.134 193.042 M225.595 219.386 C 225.595 220.283,225.628 220.650,225.668 220.202 C 225.709 219.753,225.709 219.019,225.668 218.570 C 225.628 218.121,225.595 218.488,225.595 219.386 M209.453 246.587 C 209.743 246.631,210.218 246.631,210.509 246.587 C 210.799 246.543,210.561 246.507,209.981 246.507 C 209.400 246.507,209.163 246.543,209.453 246.587 " stroke="none" fill="#ac9cbc" fill-rule="evenodd"></path><path id="path3" d="M164.875 200.000 L 164.875 246.641 186.996 246.594 L 209.117 246.547 187.092 246.497 L 165.067 246.448 165.067 200.000 L 165.067 153.553 185.749 153.503 L 206.430 153.453 185.653 153.406 L 164.875 153.359 164.875 200.000 M188.134 167.514 C 192.005 167.543,198.397 167.543,202.337 167.514 C 206.277 167.485,203.109 167.462,195.298 167.462 C 187.486 167.462,184.262 167.485,188.134 167.514 M181.086 205.422 C 181.036 205.554,181.018 211.924,181.046 219.578 L 181.097 233.493 181.143 219.435 L 181.190 205.376 197.169 205.326 L 213.148 205.276 197.163 205.229 C 184.517 205.192,181.159 205.232,181.086 205.422 M242.677 221.689 C 242.677 222.586,242.710 222.953,242.751 222.505 C 242.791 222.056,242.791 221.322,242.751 220.873 C 242.710 220.425,242.677 220.792,242.677 221.689 " stroke="none" fill="#b4acc4" fill-rule="evenodd"></path><path id="path4" d="M181.089 180.230 C 181.089 187.250,181.113 190.122,181.142 186.612 C 181.171 183.102,181.171 177.358,181.142 173.848 C 181.113 170.338,181.089 173.210,181.089 180.230 M221.367 180.230 C 221.367 180.917,221.401 181.197,221.444 180.854 C 221.487 180.511,221.487 179.950,221.444 179.607 C 221.401 179.263,221.367 179.544,221.367 180.230 M217.553 189.299 L 216.795 190.115 217.610 189.356 C 218.369 188.651,218.514 188.484,218.369 188.484 C 218.338 188.484,217.971 188.851,217.553 189.299 M236.468 205.086 C 237.042 205.667,237.554 206.142,237.607 206.142 C 237.660 206.142,237.234 205.667,236.660 205.086 C 236.087 204.506,235.575 204.031,235.522 204.031 C 235.469 204.031,235.895 204.506,236.468 205.086 M221.679 229.702 L 221.017 230.422 221.737 229.761 C 222.407 229.145,222.545 228.983,222.398 228.983 C 222.366 228.983,222.043 229.307,221.679 229.702 M236.557 237.860 L 235.605 238.868 236.612 237.915 C 237.167 237.391,237.620 236.938,237.620 236.907 C 237.620 236.764,237.442 236.924,236.557 237.860 M211.180 246.581 C 211.365 246.630,211.667 246.630,211.852 246.581 C 212.037 246.533,211.886 246.494,211.516 246.494 C 211.147 246.494,210.996 246.533,211.180 246.581 " stroke="none" fill="#9080a8" fill-rule="evenodd"></path></g></svg>