<svg id="svg" version="1.1" xmlns="http://www.w3.org/2000/svg" xmlns:xlink="http://www.w3.org/1999/xlink" width="400" height="400" viewBox="0, 0, 400,400"><g id="svgg"><path id="path0" d="M297.400 181.991 C 268.115 185.056,249.856 204.092,249.816 231.600 C 249.776 258.531,262.403 273.921,296.400 288.378 C 299.590 289.734,302.740 291.097,303.400 291.405 C 304.060 291.714,306.130 292.629,308.000 293.440 C 325.682 301.107,331.313 306.645,331.348 316.400 C 331.389 328.135,321.597 335.345,305.600 335.358 C 290.347 335.369,278.031 328.155,269.638 314.293 L 268.726 312.785 265.663 314.453 C 263.978 315.370,262.330 316.337,262.000 316.602 C 261.670 316.867,259.960 317.893,258.200 318.883 C 256.440 319.873,252.750 321.995,250.000 323.598 C 247.250 325.201,243.740 327.231,242.200 328.107 C 238.100 330.441,238.252 330.066,240.089 333.322 C 252.934 356.099,275.873 368.153,306.400 368.167 C 347.390 368.186,371.348 345.978,368.461 310.638 C 366.546 287.195,354.332 273.292,323.600 259.573 C 320.630 258.247,317.660 256.911,317.000 256.603 C 316.340 256.296,313.190 254.933,310.000 253.575 C 291.340 245.632,286.617 241.034,286.605 230.800 C 286.583 210.250,314.654 207.737,326.845 227.197 C 327.877 228.845,328.808 229.921,329.104 229.810 C 329.382 229.706,331.182 228.601,333.104 227.355 C 335.027 226.108,337.500 224.511,338.600 223.807 C 339.700 223.103,342.760 221.135,345.400 219.433 C 348.040 217.732,351.873 215.263,353.919 213.947 L 357.637 211.555 356.744 210.077 C 344.038 189.054,323.370 179.273,297.400 181.991 M180.296 251.500 C 180.182 312.736,180.109 319.223,179.510 321.400 C 176.827 331.160,171.271 335.200,160.531 335.200 C 150.387 335.200,144.180 330.750,137.391 318.610 L 135.934 316.005 134.067 317.095 C 133.040 317.694,130.220 319.390,127.800 320.864 C 125.380 322.338,122.590 324.032,121.600 324.629 C 120.610 325.225,119.170 326.113,118.400 326.601 C 117.630 327.090,114.480 328.989,111.400 330.822 C 108.320 332.655,105.743 334.191,105.674 334.236 C 105.415 334.406,107.995 339.135,110.026 342.213 C 121.670 359.862,138.145 368.113,161.800 368.144 C 190.349 368.180,208.179 356.274,215.027 332.600 C 217.605 323.689,217.584 324.349,217.592 250.700 L 217.600 184.000 199.011 184.000 L 180.422 184.000 180.296 251.500 " stroke="none" fill="#040404" fill-rule="evenodd"></path><path id="path1" d="M0.000 200.000 L 0.000 400.000 200.000 400.000 L 400.000 400.000 400.000 200.000 L 400.000 0.000 200.000 0.000 L 0.000 0.000 0.000 200.000 M316.400 182.170 C 320.187 182.684,328.330 184.746,329.958 185.603 C 330.311 185.789,331.798 186.477,333.262 187.132 C 341.659 190.887,350.610 199.318,356.590 209.106 C 357.432 210.484,358.049 211.675,357.961 211.753 C 357.799 211.894,355.445 213.413,345.800 219.600 C 342.940 221.435,339.160 223.865,337.400 225.002 C 331.980 228.501,328.923 230.400,328.709 230.400 C 328.596 230.400,327.540 228.915,326.362 227.100 C 312.671 206.003,281.460 212.932,287.404 235.749 C 289.290 242.990,294.288 246.431,317.400 256.397 C 356.213 273.134,368.955 287.859,368.972 316.000 C 368.990 344.828,350.438 363.997,318.610 368.037 C 284.184 372.407,252.944 358.473,239.247 332.639 C 237.771 329.855,237.193 330.551,244.489 326.327 C 247.190 324.764,251.560 322.234,254.200 320.705 C 256.840 319.177,260.620 317.007,262.600 315.884 C 264.580 314.762,266.629 313.518,267.154 313.122 C 268.514 312.093,268.591 312.134,270.455 314.900 C 278.093 326.231,287.151 332.750,297.458 334.335 C 318.342 337.547,332.641 328.869,330.787 314.108 C 329.734 305.718,324.839 301.394,307.800 293.798 C 304.060 292.131,300.640 290.601,300.200 290.400 C 299.760 290.198,297.420 289.202,295.000 288.187 C 266.505 276.231,253.191 262.271,249.997 241.000 C 244.215 202.491,273.699 176.370,316.400 182.170 M217.999 249.900 C 217.997 330.064,218.096 328.506,212.165 341.400 C 196.966 374.442,140.163 378.884,114.685 349.024 C 109.738 343.227,104.566 334.614,105.637 333.956 C 108.264 332.343,122.758 323.516,128.245 320.188 C 132.010 317.905,135.323 315.983,135.609 315.918 C 136.067 315.814,137.170 317.394,139.437 321.400 C 144.457 330.274,151.521 334.806,160.320 334.797 C 171.476 334.786,176.955 330.635,179.186 320.504 C 179.987 316.869,180.000 315.712,180.000 250.204 L 180.000 183.600 199.000 183.600 L 218.000 183.600 217.999 249.900 " stroke="none" fill="#f3e31b" fill-rule="evenodd"></path><path id="path2" d="M302.700 181.495 C 303.855 181.576,305.745 181.576,306.900 181.495 C 308.055 181.414,307.110 181.348,304.800 181.348 C 302.490 181.348,301.545 181.414,302.700 181.495 M180.195 248.000 C 180.195 283.530,180.242 298.065,180.300 280.300 C 180.358 262.535,180.358 233.465,180.300 215.700 C 180.242 197.935,180.195 212.470,180.195 248.000 M262.788 197.100 L 260.200 199.800 262.900 197.212 C 264.385 195.788,265.600 194.573,265.600 194.512 C 265.600 194.217,265.193 194.592,262.788 197.100 M346.800 197.000 C 348.217 198.430,349.467 199.600,349.577 199.600 C 349.687 199.600,348.617 198.430,347.200 197.000 C 345.783 195.570,344.533 194.400,344.423 194.400 C 344.313 194.400,345.383 195.570,346.800 197.000 M307.300 214.676 C 307.685 214.776,308.315 214.776,308.700 214.676 C 309.085 214.575,308.770 214.493,308.000 214.493 C 307.230 214.493,306.915 214.575,307.300 214.676 M290.778 219.500 L 289.400 221.000 290.900 219.622 C 292.296 218.338,292.584 218.000,292.278 218.000 C 292.212 218.000,291.537 218.675,290.778 219.500 M249.357 231.600 C 249.357 234.570,249.420 235.785,249.497 234.300 C 249.574 232.815,249.574 230.385,249.497 228.900 C 249.420 227.415,249.357 228.630,249.357 231.600 M286.531 230.600 C 286.533 232.140,286.605 232.721,286.692 231.891 C 286.779 231.061,286.777 229.801,286.689 229.091 C 286.600 228.381,286.529 229.060,286.531 230.600 M291.183 242.500 C 292.164 243.545,293.019 244.400,293.083 244.400 C 293.384 244.400,293.066 244.041,291.300 242.383 L 289.400 240.600 291.183 242.500 M368.954 316.000 C 368.954 318.750,369.018 319.875,369.096 318.500 C 369.174 317.125,369.174 314.875,369.096 313.500 C 369.018 312.125,368.954 313.250,368.954 316.000 M330.893 314.800 C 330.893 315.570,330.975 315.885,331.076 315.500 C 331.176 315.115,331.176 314.485,331.076 314.100 C 330.975 313.715,330.893 314.030,330.893 314.800 M217.701 316.600 C 217.705 317.480,217.787 317.793,217.883 317.295 C 217.979 316.798,217.975 316.078,217.875 315.695 C 217.775 315.313,217.696 315.720,217.701 316.600 M277.600 324.200 C 278.346 324.970,279.047 325.600,279.157 325.600 C 279.267 325.600,278.746 324.970,278.000 324.200 C 277.254 323.430,276.553 322.800,276.443 322.800 C 276.333 322.800,276.854 323.430,277.600 324.200 M159.300 335.087 C 159.905 335.178,160.895 335.178,161.500 335.087 C 162.105 334.995,161.610 334.920,160.400 334.920 C 159.190 334.920,158.695 334.995,159.300 335.087 M301.100 335.082 C 301.595 335.178,302.405 335.178,302.900 335.082 C 303.395 334.987,302.990 334.909,302.000 334.909 C 301.010 334.909,300.605 334.987,301.100 335.082 M308.705 335.083 C 309.202 335.179,309.922 335.175,310.305 335.075 C 310.687 334.975,310.280 334.896,309.400 334.901 C 308.520 334.905,308.207 334.987,308.705 335.083 M356.575 350.100 L 355.400 351.400 356.700 350.225 C 357.415 349.579,358.000 348.994,358.000 348.925 C 358.000 348.616,357.670 348.888,356.575 350.100 M117.000 351.600 C 118.306 352.920,119.465 354.000,119.575 354.000 C 119.685 354.000,118.706 352.920,117.400 351.600 C 116.094 350.280,114.935 349.200,114.825 349.200 C 114.715 349.200,115.694 350.280,117.000 351.600 M353.375 353.300 L 352.200 354.600 353.500 353.425 C 354.215 352.779,354.800 352.194,354.800 352.125 C 354.800 351.816,354.470 352.088,353.375 353.300 M201.578 355.500 L 200.200 357.000 201.700 355.622 C 203.096 354.338,203.384 354.000,203.078 354.000 C 203.012 354.000,202.337 354.675,201.578 355.500 M158.719 368.698 C 160.544 368.772,163.424 368.772,165.119 368.697 C 166.814 368.622,165.320 368.561,161.800 368.562 C 158.280 368.562,156.894 368.624,158.719 368.698 M299.891 368.689 C 300.601 368.777,301.861 368.779,302.691 368.692 C 303.521 368.605,302.940 368.533,301.400 368.531 C 299.860 368.529,299.181 368.600,299.891 368.689 M310.300 368.689 C 311.015 368.778,312.185 368.778,312.900 368.689 C 313.615 368.601,313.030 368.528,311.600 368.528 C 310.170 368.528,309.585 368.601,310.300 368.689 " stroke="none" fill="#7f7604" fill-rule="evenodd"></path><path id="path3" d="M198.999 183.898 L 217.598 184.008 217.701 249.004 L 217.804 314.000 217.802 248.900 L 217.800 183.800 199.100 183.794 L 180.400 183.788 198.999 183.898 M303.705 214.287 C 304.314 214.379,305.214 214.377,305.705 214.282 C 306.197 214.187,305.700 214.111,304.600 214.114 C 303.500 214.117,303.097 214.195,303.705 214.287 M290.000 241.725 C 290.000 241.794,290.585 242.379,291.300 243.025 L 292.600 244.200 291.425 242.900 C 290.330 241.688,290.000 241.416,290.000 241.725 M264.200 269.200 C 265.506 270.520,266.665 271.600,266.775 271.600 C 266.885 271.600,265.906 270.520,264.600 269.200 C 263.294 267.880,262.135 266.800,262.025 266.800 C 261.915 266.800,262.894 267.880,264.200 269.200 M368.493 311.200 C 368.493 311.970,368.575 312.285,368.676 311.900 C 368.776 311.515,368.776 310.885,368.676 310.500 C 368.575 310.115,368.493 310.430,368.493 311.200 M180.101 314.200 C 180.105 315.080,180.187 315.393,180.283 314.895 C 180.379 314.398,180.375 313.678,180.275 313.295 C 180.175 312.913,180.096 313.320,180.101 314.200 M331.324 316.600 C 331.326 317.920,331.401 318.412,331.490 317.693 C 331.579 316.974,331.577 315.894,331.486 315.293 C 331.395 314.692,331.322 315.280,331.324 316.600 M217.301 319.800 C 217.305 320.680,217.387 320.993,217.483 320.495 C 217.579 319.998,217.575 319.278,217.475 318.895 C 217.375 318.513,217.296 318.920,217.301 319.800 M368.493 320.800 C 368.493 321.570,368.575 321.885,368.676 321.500 C 368.776 321.115,368.776 320.485,368.676 320.100 C 368.575 319.715,368.493 320.030,368.493 320.800 M144.800 329.000 C 145.995 330.210,147.063 331.200,147.173 331.200 C 147.283 331.200,146.395 330.210,145.200 329.000 C 144.005 327.790,142.937 326.800,142.827 326.800 C 142.717 326.800,143.605 327.790,144.800 329.000 M326.181 328.500 L 324.600 330.200 326.300 328.619 C 327.881 327.148,328.184 326.800,327.881 326.800 C 327.816 326.800,327.051 327.565,326.181 328.500 M174.575 330.500 L 173.400 331.800 174.700 330.625 C 175.912 329.530,176.184 329.200,175.875 329.200 C 175.806 329.200,175.221 329.785,174.575 330.500 M303.700 335.494 C 304.745 335.576,306.455 335.576,307.500 335.494 C 308.545 335.412,307.690 335.344,305.600 335.344 C 303.510 335.344,302.655 335.412,303.700 335.494 M250.600 347.600 C 251.906 348.920,253.065 350.000,253.175 350.000 C 253.285 350.000,252.306 348.920,251.000 347.600 C 249.694 346.280,248.535 345.200,248.425 345.200 C 248.315 345.200,249.294 346.280,250.600 347.600 M305.705 368.687 C 306.314 368.779,307.214 368.777,307.705 368.682 C 308.197 368.587,307.700 368.511,306.600 368.514 C 305.500 368.517,305.097 368.595,305.705 368.687 " stroke="none" fill="#706404" fill-rule="evenodd"></path><path id="path4" d="" stroke="none" fill="#7c6c04" fill-rule="evenodd"></path></g></svg>