<svg id="svg" version="1.1" xmlns="http://www.w3.org/2000/svg" xmlns:xlink="http://www.w3.org/1999/xlink" width="400" height="400" viewBox="0, 0, 400,400"><g id="svgg"><path id="path0" d="M229.175 177.723 C 214.326 179.534,209.884 198.334,222.329 206.700 C 224.441 208.120,227.705 209.870,228.983 210.267 C 229.247 210.349,229.633 210.534,229.841 210.678 C 230.049 210.823,230.328 210.940,230.461 210.940 C 230.787 210.940,233.988 212.432,237.169 214.067 C 240.465 215.761,241.447 220.311,239.037 222.722 C 236.034 225.725,229.521 225.839,225.444 222.959 C 224.587 222.354,222.457 220.233,222.457 219.985 C 222.457 219.867,222.379 219.770,222.283 219.770 C 222.188 219.770,221.880 219.378,221.599 218.899 L 221.089 218.028 219.997 218.646 C 219.397 218.986,218.576 219.469,218.174 219.719 C 217.771 219.969,217.157 220.334,216.808 220.530 C 216.460 220.725,215.969 221.001,215.717 221.143 C 215.465 221.285,215.130 221.499,214.971 221.618 C 214.813 221.737,214.079 222.156,213.340 222.550 C 212.601 222.944,211.935 223.303,211.861 223.347 C 211.277 223.697,216.693 230.518,217.554 230.518 C 217.607 230.518,218.106 230.863,218.662 231.285 C 219.218 231.707,219.760 232.054,219.866 232.057 C 219.971 232.060,220.274 232.231,220.537 232.438 C 220.801 232.644,221.177 232.815,221.372 232.817 C 221.567 232.820,221.999 232.943,222.332 233.091 C 227.565 235.423,235.954 235.622,241.555 233.547 C 242.399 233.235,243.297 232.931,243.550 232.872 C 244.210 232.720,246.593 231.092,247.570 230.126 C 250.241 227.486,251.367 224.864,251.916 220.001 C 252.172 217.732,251.236 213.040,250.129 211.043 C 249.034 209.067,244.891 204.798,244.069 204.798 C 244.010 204.798,243.498 204.502,242.932 204.140 C 241.859 203.453,237.110 201.116,236.276 200.864 C 230.566 199.138,226.730 196.037,226.541 192.994 C 226.147 186.668,234.973 185.604,238.890 191.505 L 239.569 192.528 240.274 192.105 C 240.662 191.873,241.115 191.568,241.282 191.427 C 241.449 191.286,241.634 191.171,241.694 191.171 C 241.754 191.171,242.567 190.669,243.502 190.055 C 244.437 189.441,245.914 188.473,246.786 187.905 C 248.588 186.728,248.580 186.765,247.412 185.082 C 246.014 183.068,242.962 180.038,242.331 180.038 C 242.253 180.038,241.961 179.884,241.680 179.695 C 239.368 178.136,233.445 177.202,229.175 177.723 M193.813 199.472 L 193.759 220.633 193.315 221.689 C 191.048 227.072,182.706 225.558,180.369 219.339 C 180.256 219.038,180.154 219.060,179.325 219.568 C 178.820 219.877,177.854 220.459,177.178 220.861 C 176.502 221.264,175.552 221.830,175.067 222.119 C 174.581 222.409,174.012 222.734,173.800 222.843 C 173.589 222.952,173.028 223.296,172.553 223.608 C 172.078 223.921,171.495 224.263,171.257 224.368 C 170.752 224.591,170.754 224.583,171.065 225.279 C 171.892 227.129,173.960 229.677,175.816 231.130 C 177.974 232.821,177.975 232.821,178.408 232.821 C 178.629 232.821,178.892 232.902,178.992 233.000 C 179.338 233.338,181.291 234.020,183.205 234.473 C 187.527 235.493,195.717 234.643,197.399 233.000 C 197.500 232.902,197.711 232.821,197.869 232.821 C 198.303 232.821,199.622 231.886,200.927 230.653 C 201.665 229.956,202.948 228.177,203.378 227.255 C 204.241 225.404,204.428 224.881,204.843 223.171 L 205.272 221.401 205.328 199.856 L 205.384 178.311 199.625 178.311 L 193.866 178.311 193.813 199.472 " stroke="none" fill="#040404" fill-rule="evenodd"></path><path id="path1" d="M138.388 183.301 L 138.388 244.914 200.000 244.914 L 261.612 244.914 261.612 183.301 L 261.612 121.689 200.000 121.689 L 138.388 121.689 138.388 183.301 M237.994 178.098 C 241.551 179.110,244.138 180.790,246.413 183.568 C 247.495 184.889,247.583 185.015,248.237 186.169 C 248.581 186.777,248.446 187.332,247.953 187.332 C 247.856 187.332,247.543 187.492,247.257 187.687 C 244.767 189.388,243.788 190.025,242.898 190.520 C 242.582 190.696,242.279 190.894,242.226 190.959 C 242.051 191.177,240.510 192.131,240.335 192.131 C 240.240 192.131,240.049 192.267,239.911 192.433 C 239.667 192.727,238.982 192.193,238.968 191.699 C 238.965 191.619,238.812 191.393,238.628 191.195 C 238.443 190.997,238.094 190.574,237.853 190.254 C 236.336 188.243,232.968 187.247,230.185 187.988 C 226.397 188.997,225.388 193.883,228.388 196.688 C 229.164 197.413,233.943 200.000,234.507 200.000 C 234.616 200.000,235.037 200.159,235.443 200.352 C 235.848 200.546,236.569 200.878,237.044 201.090 C 239.929 202.376,243.832 204.443,244.446 205.009 C 244.664 205.210,244.933 205.374,245.044 205.374 C 245.319 205.374,248.630 208.573,249.216 209.405 C 254.041 216.252,252.444 227.227,245.989 231.582 C 244.671 232.472,244.423 232.629,244.242 232.694 C 244.136 232.732,243.748 232.871,243.378 233.002 C 243.009 233.134,242.145 233.453,241.459 233.712 C 236.521 235.574,229.008 235.568,223.704 233.696 C 220.185 232.454,220.380 232.544,218.525 231.312 C 217.100 230.366,214.012 227.484,214.012 227.100 C 214.012 226.974,213.934 226.871,213.839 226.871 C 213.584 226.871,211.741 223.924,211.719 223.482 C 211.713 223.359,212.075 223.076,212.524 222.852 C 212.973 222.628,213.657 222.253,214.045 222.019 C 214.432 221.785,215.555 221.137,216.540 220.579 C 217.524 220.021,218.460 219.485,218.618 219.388 C 221.081 217.874,221.074 217.875,221.787 219.004 C 224.765 223.723,230.563 226.010,235.671 224.481 C 241.125 222.848,241.991 216.746,237.136 214.153 C 236.119 213.610,232.620 211.900,232.525 211.900 C 232.475 211.900,232.067 211.739,231.620 211.541 C 231.172 211.344,230.245 210.943,229.559 210.650 C 228.406 210.158,225.549 208.786,224.102 208.029 C 223.765 207.853,223.376 207.572,223.238 207.405 C 223.099 207.238,222.901 207.102,222.797 207.102 C 222.693 207.102,222.337 206.882,222.005 206.613 C 221.673 206.344,221.059 205.847,220.640 205.509 C 213.571 199.797,213.165 188.234,219.806 181.790 C 220.472 181.144,221.115 180.615,221.234 180.615 C 221.353 180.614,221.563 180.478,221.701 180.312 C 223.571 178.058,233.238 176.745,237.994 178.098 M205.511 199.568 L 205.441 221.017 204.945 223.033 C 203.848 227.501,201.481 231.159,198.834 232.478 C 192.467 235.650,185.027 236.007,179.567 233.401 C 178.899 233.082,178.224 232.821,178.067 232.821 C 177.910 232.821,177.675 232.692,177.543 232.534 C 177.412 232.375,177.219 232.246,177.114 232.246 C 176.581 232.246,173.553 229.315,172.445 227.727 C 170.876 225.478,170.613 224.545,171.444 224.178 C 171.684 224.071,172.270 223.729,172.745 223.417 C 173.220 223.104,173.781 222.762,173.992 222.656 C 174.203 222.550,174.722 222.248,175.144 221.985 C 175.566 221.722,176.214 221.329,176.583 221.112 C 176.953 220.896,177.484 220.570,177.765 220.388 C 180.031 218.917,180.286 218.839,180.596 219.519 C 183.421 225.718,191.148 226.959,193.222 221.548 L 193.646 220.441 193.656 199.408 C 193.662 187.840,193.724 178.317,193.794 178.247 C 193.864 178.177,196.545 178.119,199.752 178.119 L 205.582 178.119 205.511 199.568 " stroke="none" fill="#f3db1c" fill-rule="evenodd"></path><path id="path2" d="M205.467 198.752 C 205.467 210.154,205.490 214.789,205.518 209.054 C 205.546 203.319,205.546 193.991,205.518 188.325 C 205.490 182.659,205.467 187.351,205.467 198.752 M193.759 198.656 C 193.759 209.899,193.782 214.499,193.810 208.877 C 193.838 203.256,193.838 194.057,193.810 188.436 C 193.782 182.814,193.759 187.414,193.759 198.656 M244.722 181.826 C 244.722 181.859,245.002 182.140,245.345 182.450 L 245.969 183.013 245.406 182.390 C 244.880 181.808,244.722 181.678,244.722 181.826 " stroke="none" fill="#9e8e13" fill-rule="evenodd"></path><path id="path3" d="M196.689 178.263 C 198.299 178.295,200.933 178.295,202.543 178.263 C 204.153 178.230,202.836 178.204,199.616 178.204 C 196.396 178.204,195.079 178.230,196.689 178.263 M231.816 187.660 C 232.055 187.706,232.400 187.704,232.584 187.656 C 232.767 187.608,232.572 187.570,232.150 187.572 C 231.727 187.575,231.577 187.614,231.816 187.660 M187.472 235.071 C 187.812 235.114,188.417 235.114,188.815 235.073 C 189.214 235.031,188.935 234.997,188.196 234.996 C 187.457 234.995,187.131 235.029,187.472 235.071 M231.820 235.075 C 232.378 235.113,233.242 235.113,233.740 235.074 C 234.238 235.034,233.781 235.002,232.726 235.003 C 231.670 235.003,231.262 235.036,231.820 235.075 " stroke="none" fill="#746c0c" fill-rule="evenodd"></path><path id="path4" d="" stroke="none" fill="#7c6c0c" fill-rule="evenodd"></path></g></svg>